<?xml version="1.0" encoding="utf-8"?>
<!-- Generator: Adobe Illustrator 19.0.1, SVG Export Plug-In . SVG Version: 6.00 Build 0)  -->
<!DOCTYPE svg PUBLIC "-//W3C//DTD SVG 1.1//EN" "http://www.w3.org/Graphics/SVG/1.1/DTD/svg11.dtd">
<svg version="1.1" id="Layer_1" xmlns="http://www.w3.org/2000/svg" xmlns:xlink="http://www.w3.org/1999/xlink" x="0px" y="0px"
	 viewBox="0 0 470 453.2" style="enable-background:new 0 0 470 453.2;" xml:space="preserve">
<style type="text/css">
	.st0{fill:#3ACCE6;}
	.st1{fill:#FFFFFF;}
	.st2{fill:#003E54;}
</style>
<path id="XMLID_199_" class="st0" d="M463.7,89.7H255.5l78.8-77.8c2.7-2.7,2.7-7.1,0.1-9.8s-7.1-2.7-9.8-0.1l-88.8,87.7h-0.4
	l-57.9-59.5c-2.7-2.7-7.1-2.8-9.8-0.1c-2.7,2.7-2.8,7.1-0.1,9.8L216,89.7H6.3C2.8,89.7,0,92.6,0,96v350.9c0,3.5,2.8,6.3,6.3,6.3
	h457.4c3.5,0,6.3-2.8,6.3-6.3V96C470,92.6,467.2,89.7,463.7,89.7z M431,410.2c0,0-62,23.1-196,23.1S39,410.2,39,410.2
	S15.9,357,15.9,271.5c0-85.5,23.1-138.8,23.1-138.8s62-23.1,196-23.1s196,23.1,196,23.1s23.1,53.4,23.1,138.8
	C454.1,356.9,431,410.2,431,410.2z"/>
<g id="XMLID_83_">
	<polygon id="XMLID_104_" class="st0" points="404.2,222.9 393.6,222.9 415,259.9 393.6,296.9 404.2,296.9 425.5,259.9 	"/>
	<polygon id="XMLID_103_" class="st0" points="65.9,222.9 76.4,222.9 55,259.9 76.4,296.9 65.9,296.9 44.5,259.9 	"/>
	<polygon id="XMLID_102_" class="st1" points="76.4,296.9 55,259.9 76.4,222.9 393.6,222.9 415,259.9 393.6,296.9 	"/>
	<g id="XMLID_84_">
		<path id="XMLID_99_" class="st2" d="M98,282.4H84.6v-44.9h14c12.8,0,22.3,6,22.3,22.5C120.9,275.7,109.5,282.4,98,282.4z
			 M98.3,246.2h-4.7v27.5H98c9.4,0,13.7-5.5,13.7-13.7C111.7,250.7,107.8,246.2,98.3,246.2z"/>
		<path id="XMLID_97_" class="st2" d="M131.2,282.4v-44.9h31.2v8.8h-22.2v7.8H153v8.7h-12.9v10.8h23.2v8.8H131.2z"/>
		<path id="XMLID_95_" class="st2" d="M195,282.4h-8.7l-16-44.9h9.9l8.5,26c0.8,2.5,1.7,5.8,2.1,7.4c0.4-1.7,1.2-4.7,2.1-7.4l8.3-26
			h9.8L195,282.4z"/>
		<path id="XMLID_92_" class="st2" d="M239.4,266.5h-9.9v15.9h-9v-44.9h19.6c8.5,0,15.5,4.7,15.5,14.2
			C255.7,262.1,248.7,266.5,239.4,266.5z M239.9,246.2h-10.3v11.5H240c4.2,0,6.4-1.9,6.4-5.8C246.4,248,243.8,246.2,239.9,246.2z"/>
		<path id="XMLID_89_" class="st2" d="M282.6,283.1c-12.3,0-19.5-9.5-19.5-23.2c0-13.7,7.3-23.2,19.5-23.2s19.5,9.5,19.5,23.2
			C302.1,273.6,294.8,283.1,282.6,283.1z M282.6,245.7c-7.3,0-10.3,6.2-10.3,14.2c0,8,3,14.2,10.3,14.2c7.2,0,10.3-6.2,10.3-14.2
			C292.8,251.9,289.8,245.7,282.6,245.7z"/>
		<path id="XMLID_87_" class="st2" d="M326.8,283.1c-7.5,0-14-3.1-17.4-8.1l6.5-5.8c3.1,3.7,7.2,5.1,11.5,5.1c5.3,0,7.8-1.5,7.8-4.9
			c0-2.9-1.5-4.2-10-6.1c-8.3-1.9-14-4.6-14-13.4c0-8.1,7.2-13.2,16-13.2c7,0,12.1,2.6,16.4,7.1l-6.5,6.3c-2.9-3-6.1-4.6-10.2-4.6
			c-4.8,0-6.4,2.1-6.4,4c0,2.8,1.9,3.7,9,5.4c7.1,1.7,15,4.1,15,13.9C344.5,277.3,339.1,283.1,326.8,283.1z"/>
		<path id="XMLID_85_" class="st2" d="M372.6,246.3v36.1h-9v-36.1h-12.9v-8.9h34.8v8.9H372.6z"/>
	</g>
</g>
<g id="XMLID_178_">
	<path id="XMLID_179_" class="st1" d="M143.9,367.2c-1.5,3-4,5.7-6,7.5c-2.2,1.9-5.9,3-9,2.7c-3.2-0.3-5.8-1.5-7.7-2.6
		c-1.6-1-3.6-3-4.3-5.3c-3.4-10.8,4.5-32.4,15.5-41.8c2.9-2.4,5.7-3,7.9-2.7c3.4,0.3,7.4,2,9.3,3.8c2.2,2,2.6,4.2,2.5,7
		c-0.1,3.1-0.9,7.6-2,10.1c-0.5,1.3-0.9,2.1-2.9,1.6c-4.1-0.9-5.5-3-5.7-6.7c-0.1-2.7,1.2-6.3-0.6-7c-2.3-0.9-8.6,9.6-11.3,16.8
		c-2.9,7.8-4.2,16.8-1.4,17.8c1.5,0.6,3.5-0.9,6.8-4.5c2.2-2.4,5.1-3.1,8.1-2.1C145.6,362.8,145.2,364.6,143.9,367.2z"/>
	<path id="XMLID_181_" class="st1" d="M187.5,336.9c0.6,10.7-3.8,27.8-12.7,36.5c-3,2.9-6.2,3.7-10.1,3.2c-2.5-0.3-5.5-1.3-7.5-2.7
		c-1.6-1.1-3.3-3.2-4-5.7c-3.4-11.2,3.5-31.2,14.4-40.2c2.3-1.9,5.8-2.8,8.3-2.4c3.3,0.5,6.7,1.9,8.5,3.7
		C186.4,331.5,187.3,333.9,187.5,336.9z M165.6,349.9c-2.7,7.3-4.2,17.3-1.3,18.5c2.8,1.2,7.3-5.7,10.4-15c2.4-7.2,4.2-18,1.6-18.8
		C173.9,333.8,168.4,342.5,165.6,349.9z"/>
	<path id="XMLID_184_" class="st1" d="M197.2,375.1c-0.5,1.7-1.1,2.1-2.7,1.7c-1.5-0.4-3.3-1.3-4.6-2.1c-1.4-1-1.7-2-1.3-4.3
		c1.9-9.8,8.8-32.4,12.2-42.1c0.8-2.3,1.8-2.7,3.9-2.4c3.1,0.5,5.1,1.3,7.2,2.2c2.7,1.1,2.8,2.7,2.8,5.3c-0.2,4.6-0.1,11.8-0.1,17.6
		c3.8-7.3,10.4-18.6,13.5-23.6c1.6-2.5,3.1-2.5,5.7-1.8c2.4,0.7,5.3,1.7,7.9,3.1c1.7,0.9,2,2.1,1.3,4.3
		c-3.5,10.1-10.3,32.6-12.7,41.7c-0.5,1.7-1.2,2.4-2.8,2c-1.6-0.4-3.4-1.3-4.5-2c-1.4-0.9-1.7-2.1-1.3-4.3c1-5.1,4.2-16.4,7.1-25.6
		c-4.4,8-11.2,20.3-14.1,26.1c-0.9,1.8-1.2,2.2-2.9,1.8c-1.2-0.2-2.4-0.7-3.5-1.2c-1.3-0.7-2-1.3-2.2-4.3
		c-0.3-5.8-0.4-14.1-0.2-21.5C202.5,356.1,199.2,367.7,197.2,375.1z"/>
	<path id="XMLID_186_" class="st1" d="M250.7,375.1c-0.5,1.7-1.1,2.1-2.7,1.7c-1.5-0.4-3.3-1.3-4.6-2.1c-1.4-1-1.7-2-1.3-4.3
		c1.9-9.8,8.8-32.4,12.2-42.1c0.8-2.3,1.8-2.7,3.9-2.4c3.1,0.5,5.1,1.3,7.2,2.2c2.7,1.1,2.8,2.7,2.8,5.3c-0.2,4.6-0.1,11.8-0.1,17.6
		c3.8-7.3,10.4-18.6,13.5-23.6c1.6-2.5,3.1-2.5,5.7-1.8c2.4,0.7,5.3,1.7,7.9,3.1c1.7,0.9,2,2.1,1.3,4.3
		c-3.5,10.1-10.3,32.6-12.7,41.7c-0.5,1.7-1.2,2.4-2.8,2c-1.6-0.4-3.4-1.3-4.5-2c-1.4-0.9-1.7-2.1-1.3-4.3c1-5.1,4.2-16.4,7.1-25.6
		c-4.4,8-11.2,20.3-14.1,26.1c-0.9,1.8-1.2,2.2-2.9,1.8c-1.2-0.2-2.4-0.7-3.5-1.2c-1.3-0.7-2-1.3-2.2-4.3
		c-0.3-5.8-0.4-14.1-0.2-21.5C256,356.1,252.6,367.7,250.7,375.1z"/>
	<path id="XMLID_188_" class="st1" d="M315.8,333c-3.6,9.7-10.1,30.6-13.4,42.1c-0.5,1.7-1.1,2-2.7,1.6c-1.6-0.5-3.5-1.3-4.9-2.3
		c-1.4-1-1.7-2-1.2-4.3c1.9-9,8.6-32.4,12-42.2c0.7-1.9,1.7-2.2,3.5-1.6c1.7,0.6,4.2,1.9,5.6,3C316.3,330.5,316.4,331.2,315.8,333z"
		/>
	<path id="XMLID_190_" class="st1" d="M343.5,334.9c-4.2,12.2-9.2,28.1-12.6,40.4c-0.5,1.6-1,2-2.7,1.5c-1.7-0.5-3.5-1.3-4.9-2.3
		s-1.6-2.2-1.1-4.4c1.6-8.2,6.1-23.6,9.4-33.6c-1.8,0.3-3.8,0.6-4.9,0.9c-1.6,0.4-2.4,0.2-3.4-1.3c-1-1.5-1.8-4.2-2.2-5.7
		c-0.4-1.6,0.1-1.9,1.3-2.2c7.4-1.6,19.2-2.9,26.5-3.1c1.8,0,2.4,0.5,3,1.3c1,1.6,1.7,3.5,2,5.2c0.2,1.6,0.1,2.1-1.8,2.3
		C349.6,334.2,346.7,334.5,343.5,334.9z"/>
</g>
<g id="XMLID_43_">
	<path id="XMLID_172_" class="st1" d="M217.1,174.5c-2.5,7.2-5.4,16.5-7.4,23.8c-0.3,1-0.6,1.2-1.6,0.9c-1-0.3-2-0.7-2.9-1.3
		c-0.8-0.6-0.9-1.3-0.6-2.6c1-4.9,3.6-13.9,5.5-19.8c-1.1,0.2-2.2,0.4-2.9,0.6c-1,0.2-1.4,0.1-2-0.7c-0.6-0.9-1.1-2.4-1.3-3.3
		c-0.2-0.9,0-1.1,0.8-1.3c4.3-1,11.3-1.7,15.6-1.8c1.1,0,1.4,0.3,1.8,0.7c0.6,0.9,1,2.1,1.2,3c0.1,1,0,1.2-1.1,1.3
		C220.7,174.1,219,174.3,217.1,174.5z"/>
	<path id="XMLID_174_" class="st1" d="M237.2,198.2c-0.3,1-0.6,1.2-1.6,0.9c-1-0.3-2-0.6-2.8-1.3c-0.8-0.6-0.9-1.2-0.6-2.5
		c0.4-1.8,1-4.3,1.8-6.9c-1.6,0.3-3.3,0.6-4.9,0.9c-1,3.3-1.9,6.5-2.6,8.9c-0.3,1-0.6,1.2-1.6,0.9c-0.9-0.3-2.1-0.8-2.9-1.3
		c-0.8-0.6-1-1.2-0.7-2.5c0.4-1.7,1-4.3,1.8-7.2c-0.3-0.7-0.6-1.6-0.7-2.1c-0.3-0.9,0-1.1,0.7-1.3c0.3-0.1,0.6-0.2,1-0.3
		c1.5-5.2,3.1-10.8,4.3-13.9c0.5-1.2,1-1.3,2-1c1,0.4,2.4,1.1,3.3,1.8c0.9,0.7,1,1.2,0.6,2.2c-0.9,2.4-2.1,5.9-3.3,9.7
		c1.6-0.2,3.2-0.4,4.7-0.5c1.4-4.6,2.9-9.3,4-12.7c0.4-1.2,1-1.3,2-1c1,0.3,2.2,0.9,3.1,1.7c0.8,0.6,1,1.2,0.6,2.2
		C243.1,179,239.6,190,237.2,198.2z"/>
	<path id="XMLID_176_" class="st1" d="M249.6,171.9c-0.2-0.9,0-1.1,0.8-1.3c3.2-0.9,9.1-1.6,13.4-1.8c1,0,1.6,0.4,1.8,1.3
		c0.3,1,0.5,1.7,0.6,2.6c0,1-0.2,1.4-1.2,1.5c-2.1,0.2-4.8,0.6-7.3,1c-0.7,1.9-1.5,4.1-2.4,6.3c1.2-0.2,2.3-0.3,3.6-0.3
		c1,0,1.6,0.2,1.9,1.1c0.3,0.9,0.6,1.8,0.6,2.7c0.1,1-0.1,1.3-1.2,1.5c-2.4,0.5-5,1-7.3,1.6c-0.5,1.4-1,2.9-1.4,4.2
		c1.9-0.4,3.6-0.6,5.5-0.7c1-0.1,1.6,0.1,1.9,1c0.4,1,0.6,1.8,0.7,2.7c0.1,1-0.1,1.3-1.1,1.6c-2.6,0.6-5.6,1.2-8.1,1.9
		c-1.7,0.5-2.4,0.1-2.9-0.5c-0.6-0.6-1.1-1.1-1.8-2c-0.6-0.7-0.8-1.7-0.6-3c0.9-4.1,3.6-12.2,5.6-18.3
		C250.2,174.1,249.8,172.8,249.6,171.9z"/>
</g>
</svg>
